PathFileType	4	(X/Y/Z)	1_coords_data.trc
DataRate	CameraRate	NumFrames	NumMarkers	Units	OrigDataRate	OrigDataStartFrame	OrigNumFrames
30.0	30.0	7	21	m	30.0	11	62
Frame#	Time	THUMB_TIP	THUMB_IP	THUMB_MCP	THUMB_CMC	INDEX_TIP	INDEX_DIP	INDEX_PIP	INDEX_MCP	MIDDLE_TIP	MIDDLE_DIP	MIDDLE_PIP	MIDDLE_MCP	RING_TIP	RING_DIP	RING_PIP	RING_MCP	PINKY_TIP	PINKY_DIP	PINKY_PIP	PINKY_MCP	WRIST
X1	Y1	Z1	X2	Y2	Z2	X3	Y3	Z3	X4	Y4	Z4	X5	Y5	Z5	X6	Y6	Z6	X7	Y7	Z7	X8	Y8	Z8	X9	Y9	Z9	X10	Y10	Z10	X11	Y11	Z11	X12	Y12	Z12	X13	Y13	Z13	X14	Y14	Z14	X15	Y15	Z15	X16	Y16	Z16	X17	Y17	Z17	X18	Y18	Z18	X19	Y19	Z19	X20	Y20	Z20	X21	Y21	Z21
10	0.3333333333333333	0.023374500274658202	0.04753319931030273	0.925260009765625	0.02744490051269531	0.053449199676513674	0.9490180053710937	0.02323430061340332	0.055321098327636715	0.9757100219726562	-0.000379195004701614	0.061432300567626955	0.9901929931640625	0.07040830230712891	-0.04979230117797852	0.9368839721679687	0.06223460006713867	-0.03169000053405762	0.9468679809570313	0.05198540115356445	-0.015261500358581544	0.9560150146484375	0.02999099922180176	0.01160159969329834	0.9705900268554688	0.02827779960632324	0.04056119918823242	0.9527750244140625	0.031246299743652343	0.032558101654052735	0.9353829956054688	0.02599959945678711	0.00932878017425537	0.9295570068359374	0.0061075701713562015	0.001202000021934509	0.9656019897460938	0.012316499710083008	0.04631290054321289	0.9449119873046875	0.01179010009765625	0.034587299346923825	0.9303610229492187	0.0033945300579071042	0.012359800338745118	0.925125	-0.012619999885559082	0.007673329830169677	0.9557340087890625	-0.032878700256347655	-0.02066620063781738	0.902469970703125	-0.030128299713134767	-0.007334159851074219	0.916718994140625	-0.02749449920654297	0.003512480020523071	0.92897900390625	-0.023435800552368165	0.021892799377441406	0.9479940185546875	-0.029740900039672852	0.05105830001831055	1.0092000122070313
11	0.36666666666666664	0.02407200050354004	0.04740800094604492	0.9256790161132813	0.027839000701904298	0.053284400939941405	0.949635009765625	0.023535499572753905	0.05517250061035156	0.9761480102539063	-0.000142410993576049	0.06146739959716797	0.9906430053710937	0.07150279998779296	-0.04909220123291016	0.9378679809570313	0.06300749969482422	-0.03112229919433594	0.9477990112304687	0.05266019821166992	-0.014911999702453613	0.9567050170898438	0.030059600830078127	0.011676899909973145	0.9715640258789062	0.02861020088195801	0.04045439910888672	0.9534180297851562	0.03157430076599121	0.03239260101318359	0.9358189697265625	0.02627359962463379	0.009109780311584473	0.930155029296875	0.0063533101081848144	0.001155959963798523	0.9662379760742188	0.01270829963684082	0.04624750137329101	0.9451950073242188	0.01227400016784668	0.034522899627685545	0.93077099609375	0.003770450115203857	0.012248900413513184	0.9256480102539062	-0.012348400115966798	0.007660299777984619	0.9564879760742188	-0.03259619903564453	-0.020631500244140625	0.902926025390625	-0.029904699325561522	-0.007270140171051025	0.9171370239257812	-0.02725629997253418	0.0035255000591278072	0.9293829956054688	-0.023111900329589843	0.021989500045776367	0.94847998046875	-0.029456100463867187	0.0511688003540039	1.0098099975585937
12	0.4	0.024298999786376955	0.0468755989074707	0.9262969970703125	0.028153099060058594	0.05295769882202148	0.9501430053710938	0.02394409942626953	0.05492119979858399	0.97664697265625	0.00023524099588394102	0.06122389984130859	0.9907260131835938	0.07302970123291015	-0.04826089859008789	0.9382919921875	0.06415390014648438	-0.030536800384521483	0.9482849731445312	0.05343109893798828	-0.014386500358581543	0.9573159790039063	0.030322099685668947	0.011642600059509277	0.9725040283203125	0.02888640022277832	0.040117401123046875	0.9540709838867187	0.03180820083618164	0.03211109924316406	0.9364140014648438	0.026541799545288087	0.00884490966796875	0.9309199829101562	0.006544040203094482	0.0010693999528884881	0.966968994140625	0.013007100105285645	0.046078701019287106	0.9457760009765624	0.012440999984741212	0.03419609832763672	0.9315079956054687	0.003939480066299438	0.011979399681091308	0.9263670043945312	-0.012280400276184083	0.007595809936523437	0.957177978515625	-0.03223780059814453	-0.02088319969177246	0.903531982421875	-0.029614700317382812	-0.007521999835968018	0.9178040161132812	-0.027006399154663085	0.003308170080184936	0.930072021484375	-0.022900800704956054	0.02176420021057129	0.9491820068359375	-0.029130699157714844	0.051165699005126956	1.0099000244140626
13	0.43333333333333335	0.024685600280761718	0.0470343017578125	0.92685302734375	0.02844409942626953	0.05302980041503906	0.950677001953125	0.02418630027770996	0.054791400909423825	0.9769559936523438	0.00032896301150321905	0.06124280166625977	0.9916309814453125	0.073845703125	-0.047479698181152344	0.9381259765625	0.06478070068359375	-0.02993819999694824	0.9483380126953125	0.05396279907226562	-0.014026100158691407	0.9574810180664063	0.030679399490356446	0.011587200164794921	0.9726840209960937	0.029096099853515626	0.04028020095825195	0.9545130004882812	0.03205429840087891	0.03231129837036133	0.9370369873046875	0.02681049919128418	0.009060370445251464	0.93122998046875	0.006843860149383545	0.001087960004806518	0.9673099975585937	0.013154899597167969	0.04611899948120117	0.9471530151367188	0.012675700187683105	0.034517101287841793	0.932239013671875	0.00417303991317749	0.012373200416564941	0.926791015625	-0.011825400352478027	0.007580470085144043	0.9575390014648437	-0.031826099395751956	-0.020273500442504883	0.9035089721679688	-0.02923080062866211	-0.007059999942779541	0.9179320068359375	-0.026652799606323243	0.003615999937057495	0.930239013671875	-0.02263669967651367	0.02191069984436035	0.9496840209960937	-0.02904990005493164	0.05097460174560547	1.0106599731445312
14	0.4666666666666667	0.024716400146484376	0.04687110137939453	0.9272030029296875	0.0285846004486084	0.05295920181274414	0.9511129760742187	0.024013500213623046	0.05492100143432617	0.9775640258789062	0.000375137001276016	0.06120059967041016	0.9923109741210937	0.07438089752197266	-0.04727930068969727	0.9388170166015625	0.06511129760742188	-0.029766000747680665	0.9489359741210938	0.05423500061035156	-0.013859399795532227	0.9580889892578125	0.030619400024414063	0.011543600082397461	0.9735780029296875	0.02943120002746582	0.040335700988769534	0.954677978515625	0.03220550155639648	0.03213830184936523	0.937614013671875	0.026843999862670897	0.008913849830627442	0.9318599853515624	0.0070131998062133785	0.0008945149779319761	0.9679429931640625	0.013190400123596192	0.04612900161743164	0.94697900390625	0.012830100059509277	0.034493999481201174	0.9327080078125	0.004229119777679443	0.012215700149536133	0.9270859985351563	-0.011667699813842773	0.007427780151367187	0.9579290161132813	-0.03185530090332031	-0.020417200088500977	0.904197021484375	-0.029177099227905273	-0.007160840034484864	0.9185059814453125	-0.02655299949645996	0.00348580002784729	0.930781982421875	-0.022440000534057616	0.02186050033569336	0.9501680297851562	-0.028799400329589844	0.050928699493408204	1.0106300048828125
15	0.5	0.024832099914550782	0.04651910018920898	0.9278099975585937	0.02872179985046387	0.0527057991027832	0.951531005859375	0.024326000213623047	0.05464410018920898	0.978208984375	0.0006037830114364621	0.06090349960327148	0.9924359741210937	0.07480010223388672	-0.04714300155639648	0.9390919799804688	0.06536100006103515	-0.029739299774169923	0.9492769775390625	0.0543203010559082	-0.013834500312805175	0.9585900268554688	0.030857500076293946	0.011281299591064452	0.9739940185546875	0.029387100219726563	0.040071601867675784	0.9551619873046875	0.03224629974365235	0.03182349967956543	0.9379639892578125	0.026864599227905274	0.008683219909667968	0.9323159790039063	0.007017250061035156	0.000692487001419067	0.9684390258789063	0.013521499633789062	0.04583700180053711	0.9479639892578124	0.012924300193786622	0.03427180099487305	0.9331729736328125	0.00444832992553711	0.012130299568176269	0.9276929931640625	-0.011630900382995605	0.007381110191345215	0.9585869750976562	-0.03175040054321289	-0.020181100845336915	0.90456298828125	-0.02900510025024414	-0.007054930210113526	0.9188569946289062	-0.026271999359130858	0.003541919946670532	0.9310349731445312	-0.022246299743652345	0.021758399963378906	0.950489990234375	-0.028682300567626953	0.050687301635742185	1.0112899780273437
16	0.5333333333333333	0.024752700805664062	0.046559398651123046	0.928218994140625	0.028787599563598634	0.05269290161132813	0.951916015625	0.02444849967956543	0.05460639953613281	0.9787559814453125	0.0007944210171699521	0.06085430145263672	0.9932470092773438	0.07508940124511719	-0.04675979995727539	0.9388779907226562	0.06558779907226563	-0.029523000717163086	0.949260009765625	0.05443410110473633	-0.013750900268554687	0.9588049926757812	0.030955799102783205	0.011305000305175781	0.9742490234375	0.029364799499511717	0.039921298980712894	0.9562459716796875	0.03228150177001953	0.03190239906311035	0.938176025390625	0.026848699569702147	0.008698559761047364	0.9325659790039063	0.007216440200805664	0.0007399780154228211	0.9689169921875	0.013469099998474121	0.045789100646972655	0.9487069702148437	0.012914199829101563	0.034455699920654295	0.93377099609375	0.004411980152130127	0.012375100135803223	0.9281519775390625	-0.011454899787902833	0.007538809776306153	0.9591229858398438	-0.03170070075988769	-0.019512399673461914	0.9046799926757813	-0.02892580032348633	-0.006439889907836914	0.9191829833984375	-0.02623539924621582	0.003956769943237304	0.931614990234375	-0.022068599700927734	0.022039199829101564	0.9512550048828124	-0.02848150062561035	0.05057590103149414	1.0120399780273437
